<?xml version="1.0" encoding="UTF-8"?>
<svg id="Layer_1" data-name="Layer 1" xmlns="http://www.w3.org/2000/svg" xmlns:xlink="http://www.w3.org/1999/xlink" viewBox="0 0 552.86 564.38">
  <defs>
    <style>
      .cls-1, .cls-2 {
        fill: none;
      }

      .cls-3 {
        fill: url(#linear-gradient);
      }

      .cls-4 {
        clip-path: url(#clippath);
      }

      .cls-5 {
        fill: #1c2a39;
      }

      .cls-2 {
        clip-rule: evenodd;
      }

      .cls-6 {
        clip-path: url(#clippath-1);
      }

      .cls-7 {
        clip-path: url(#clippath-4);
      }

      .cls-8 {
        clip-path: url(#clippath-3);
      }

      .cls-9 {
        clip-path: url(#clippath-2);
      }

      .cls-10 {
        clip-path: url(#clippath-7);
      }

      .cls-11 {
        clip-path: url(#clippath-8);
      }

      .cls-12 {
        clip-path: url(#clippath-6);
      }

      .cls-13 {
        clip-path: url(#clippath-5);
      }

      .cls-14 {
        clip-path: url(#clippath-9);
      }

      .cls-15 {
        fill: url(#linear-gradient-8);
      }

      .cls-16 {
        fill: url(#linear-gradient-9);
      }

      .cls-17 {
        fill: url(#linear-gradient-3);
      }

      .cls-18 {
        fill: url(#linear-gradient-4);
      }

      .cls-19 {
        fill: url(#linear-gradient-2);
      }

      .cls-20 {
        fill: url(#linear-gradient-6);
      }

      .cls-21 {
        fill: url(#linear-gradient-7);
      }

      .cls-22 {
        fill: url(#linear-gradient-5);
      }

      .cls-23 {
        fill: url(#linear-gradient-10);
      }
    </style>
    <clipPath id="clippath">
      <path class="cls-1" d="M258.98,55.37c26.66-3.65,53.31-.25,77.54,9.26,24.29,9.54,46.16,25.19,63.2,46.01,4.39,5.36,8.46,11.11,12.2,17.2,3.65,5.95,6.91,12.19,9.75,18.68l-22.85,9.96c-2.35-5.36-5.09-10.59-8.19-15.65-3.01-4.91-6.43-9.72-10.25-14.37-14.31-17.48-32.63-30.61-52.95-38.59-20.38-8-42.76-10.87-65.14-7.8l-3.32-24.7Z"/>
    </clipPath>
    <linearGradient id="linear-gradient" x1="36.01" y1="331.23" x2="489.67" y2="-7.37" gradientUnits="userSpaceOnUse">
      <stop offset="0" stop-color="#457dc0"/>
      <stop offset="1" stop-color="#d964a6"/>
    </linearGradient>
    <clipPath id="clippath-1">
      <path class="cls-1" d="M425.15,262.27c-4.76,12.9-11.23,25.08-19.17,36.23-7.97,11.18-17.37,21.26-27.98,29.95-15.93,13.04-34.16,22.65-53.56,28.47-19.32,5.8-39.8,7.82-60.32,5.7l2.54-24.8c17.17,1.77,34.38,.06,50.66-4.83,16.21-4.87,31.48-12.92,44.87-23.88,8.99-7.36,16.88-15.8,23.49-25.07,6.63-9.3,12.04-19.51,16.05-30.37l23.43,8.59Z"/>
    </clipPath>
    <linearGradient id="linear-gradient-2" x1="135.87" y1="465.02" x2="589.53" y2="126.43" xlink:href="#linear-gradient"/>
    <clipPath id="clippath-2">
      <path class="cls-1" d="M160.2,306.73c-22-26.87-33.69-59.46-34.88-92.47-1.19-32.97,8.12-66.32,28.12-94.71l20.41,14.35c-16.81,23.86-24.63,51.83-23.63,79.48,1,27.61,10.82,54.94,29.32,77.53l-19.33,15.82Z"/>
    </clipPath>
    <linearGradient id="linear-gradient-3" x1="20.84" y1="310.91" x2="474.5" y2="-27.69" xlink:href="#linear-gradient"/>
    <clipPath id="clippath-3">
      <path class="cls-2" d="M107.97,105.82c5.26,0,9.52,4.26,9.52,9.52s-4.26,9.52-9.52,9.52-9.52-4.26-9.52-9.52,4.26-9.52,9.52-9.52M344.72,13.89c5.26,0,9.52,4.26,9.52,9.52s-4.26,9.52-9.52,9.52-9.52-4.26-9.52-9.52,4.26-9.52,9.52-9.52ZM128.44,105.03c1.56,3.1,2.44,6.6,2.44,10.3,0,12.66-10.26,22.92-22.92,22.92s-22.92-10.26-22.92-22.92,9.67-22.32,21.82-22.89c18.52-27.65,43.08-50.05,71.3-65.85C208.81,9.43,243.76,0,279.99,0c9.3,0,18.75,.66,28.27,1.96,7.23,.99,14.4,2.36,21.48,4.1,4.02-3.47,9.25-5.57,14.98-5.57,12.66,0,22.92,10.26,22.92,22.92s-10.26,22.92-22.92,22.92c-10.36,0-19.12-6.88-21.95-16.31-5.89-1.41-11.84-2.53-17.83-3.35-8.1-1.11-16.43-1.67-24.95-1.67-31.93,0-62.69,8.29-89.62,23.37-24.45,13.69-45.75,32.95-61.93,56.67Z"/>
    </clipPath>
    <linearGradient id="linear-gradient-4" x1="-21.53" y1="254.13" x2="432.13" y2="-84.47" xlink:href="#linear-gradient"/>
    <clipPath id="clippath-4">
      <path class="cls-2" d="M296.78,393.48c5.26,0,9.52,4.26,9.52,9.52s-4.26,9.52-9.52,9.52-9.52-4.26-9.52-9.52,4.26-9.52,9.52-9.52M87.37,238.08c5.26,0,9.52,4.26,9.52,9.52s-4.26,9.52-9.52,9.52-9.52-4.26-9.52-9.52,4.26-9.52,9.52-9.52Zm209.41,142c12.66,0,22.92,10.26,22.92,22.92s-10.26,22.92-22.92,22.92c-7.47,0-14.11-3.57-18.29-9.11-46.18-.33-89.55-15.9-124.57-42.52-33.96-25.81-60.02-62.01-73.13-104.74-9.45-2.83-16.34-11.59-16.34-21.96,0-12.66,10.26-22.92,22.92-22.92s22.92,10.26,22.92,22.92c0,5.73-2.1,10.97-5.58,14.98,11.58,37.51,34.46,69.26,64.24,91.89,30.29,23.02,67.77,36.63,107.83,37.32,3.93-6.99,11.41-11.72,20-11.72Z"/>
    </clipPath>
    <linearGradient id="linear-gradient-5" x1="89" y1="402.23" x2="542.66" y2="63.63" xlink:href="#linear-gradient"/>
    <clipPath id="clippath-5">
      <path class="cls-2" d="M410.68,347.53c5.26,0,9.52,4.26,9.52,9.52s-4.26,9.52-9.52,9.52-9.52-4.26-9.52-9.52,4.26-9.52,9.52-9.52m31.25-259.74c5.26,0,9.52,4.26,9.52,9.52s-4.26,9.52-9.52,9.52-9.52-4.26-9.52-9.52,4.26-9.52,9.52-9.52Zm-31.25,246.34c.93,0,1.85,.06,2.75,.16,15.34-16.26,27.45-35.07,35.92-55.41,9.19-22.09,14.06-46.01,14.06-70.48,0-16.34-2.18-32.52-6.43-48.14-3.8-13.97-9.2-27.43-16.13-40.07-12.16-.56-21.84-10.6-21.84-22.89s10.26-22.92,22.92-22.92,22.92,10.26,22.92,22.92c0,3.73-.89,7.25-2.47,10.36,8.12,14.68,14.39,30.15,18.72,46.07,4.83,17.75,7.3,36.13,7.3,54.68,0,27.71-5.54,54.89-16.01,80.05-9.41,22.62-22.83,43.6-39.8,61.84,.66,2.13,1.01,4.4,1.01,6.75,0,12.66-10.26,22.92-22.92,22.92s-22.92-10.26-22.92-22.92,10.26-22.92,22.92-22.92Z"/>
    </clipPath>
    <linearGradient id="linear-gradient-6" x1="129.98" y1="457.14" x2="583.64" y2="118.54" xlink:href="#linear-gradient"/>
    <clipPath id="clippath-6">
      <path class="cls-2" d="M281.95,173.03c17.23,0,31.19,13.97,31.19,31.19s-13.97,31.19-31.19,31.19-31.19-13.97-31.19-31.19,13.97-31.19,31.19-31.19"/>
    </clipPath>
    <linearGradient id="linear-gradient-7" x1="63.12" y1="367.55" x2="516.78" y2="28.95" xlink:href="#linear-gradient"/>
    <clipPath id="clippath-7">
      <path class="cls-2" d="M337.69,146.72c4.12,0,7.46,3.34,7.46,7.46s-3.34,7.46-7.46,7.46-7.46-3.34-7.46-7.46,3.34-7.46,7.46-7.46m-106.31-4.13c4.12,0,7.46,3.34,7.46,7.46s-3.34,7.46-7.46,7.46-7.46-3.34-7.46-7.46,3.34-7.46,7.46-7.46Zm106.31-6.37c9.92,0,17.97,8.04,17.97,17.97s-8.04,17.97-17.97,17.97-17.24-7.34-17.92-16.64c-1.29-.96-2.56-1.83-3.82-2.62h-.05c-2.38-1.49-4.94-2.86-7.65-4.08-10.11-4.56-21.08-6.33-31.83-5.4-9.53,.83-18.84,3.76-27.19,8.72-1.03,8.94-8.63,15.89-17.85,15.89-9.92,0-17.97-8.05-17.97-17.97s8.04-17.97,17.97-17.97c.9,0,1.78,.07,2.64,.19,12.33-7.92,26.17-12.54,40.26-13.76,14.88-1.29,30.12,1.18,44.23,7.55,3.62,1.63,7.19,3.55,10.68,5.74v.02c2.3,1.45,4.49,2.96,6.54,4.5,.64-.07,1.3-.11,1.96-.11Z"/>
    </clipPath>
    <linearGradient id="linear-gradient-8" x1="35.51" y1="330.56" x2="489.17" y2="-8.04" xlink:href="#linear-gradient"/>
    <clipPath id="clippath-8">
      <path class="cls-2" d="M300.33,274.19c4.12,0,7.46,3.34,7.46,7.46s-3.34,7.46-7.46,7.46-7.46-3.34-7.46-7.46,3.34-7.46,7.46-7.46m56.87-92.25c4.12,0,7.46,3.34,7.46,7.46s-3.34,7.46-7.46,7.46-7.46-3.34-7.46-7.46,3.34-7.46,7.46-7.46Zm-56.87,81.75c2.77,0,5.4,.63,7.74,1.75,6.54-2.92,12.48-6.88,17.62-11.69,6.04-5.66,11-12.56,14.53-20.38,2.36-5.24,4-10.69,4.88-16.2,.73-4.55,.96-9.21,.68-13.89-3.99-3.3-6.54-8.28-6.54-13.87,0-9.92,8.04-17.97,17.97-17.97s17.97,8.04,17.97,17.97c0,4.58-1.71,8.76-4.53,11.93,.42,6.59,.1,13.2-.94,19.73-1.24,7.8-3.5,15.38-6.73,22.55-4.84,10.72-11.77,20.31-20.29,28.29-7.52,7.04-16.25,12.78-25.85,16.88-2.76,6.38-9.11,10.85-16.5,10.85-9.92,0-17.97-8.04-17.97-17.97s8.04-17.97,17.97-17.97Z"/>
    </clipPath>
    <linearGradient id="linear-gradient-9" x1="94.87" y1="410.1" x2="548.53" y2="71.5" xlink:href="#linear-gradient"/>
    <clipPath id="clippath-9">
      <path class="cls-2" d="M258.34,273.2c4.12,0,7.46,3.34,7.46,7.46s-3.34,7.46-7.46,7.46-7.46-3.34-7.46-7.46,3.34-7.46,7.46-7.46m-50.92-93.58c4.12,0,7.46,3.34,7.46,7.46s-3.34,7.46-7.46,7.46-7.46-3.34-7.46-7.46,3.34-7.46,7.46-7.46Zm50.92,83.07c9.92,0,17.97,8.04,17.97,17.97s-8.04,17.97-17.97,17.97c-8.06,0-14.88-5.3-17.16-12.61-16.21-8.36-29.03-21.25-37.35-36.58-8.28-15.27-12.1-32.96-10.33-50.99-2.53-3.1-4.05-7.06-4.05-11.37,0-9.92,8.04-17.97,17.97-17.97s17.97,8.04,17.97,17.97c0,5.82-2.77,11-7.06,14.28-1.14,12.81,1.61,25.34,7.48,36.17,5.94,10.96,15.06,20.17,26.56,26.18,1.87-.66,3.88-1.02,5.97-1.02Z"/>
    </clipPath>
    <linearGradient id="linear-gradient-10" x1="59.77" y1="363.07" x2="513.43" y2="24.47" xlink:href="#linear-gradient"/>
  </defs>
  <g class="cls-4">
    <rect class="cls-3" x="258.98" y="51.71" width="162.69" height="104.77"/>
  </g>
  <g class="cls-6">
    <rect class="cls-19" x="264.12" y="253.67" width="161.03" height="111.06"/>
  </g>
  <g class="cls-9">
    <rect class="cls-17" x="124.12" y="119.56" width="55.41" height="187.18"/>
  </g>
  <g class="cls-8">
    <rect class="cls-18" x="85.05" width="282.59" height="138.25"/>
  </g>
  <g class="cls-7">
    <rect class="cls-22" x="64.45" y="224.68" width="255.25" height="201.25"/>
  </g>
  <g class="cls-13">
    <rect class="cls-20" x="387.76" y="74.39" width="100.64" height="305.58"/>
  </g>
  <g class="cls-12">
    <rect class="cls-21" x="250.75" y="173.03" width="62.39" height="62.39"/>
  </g>
  <g class="cls-10">
    <rect class="cls-15" x="213.42" y="117.22" width="142.25" height="54.94"/>
  </g>
  <g class="cls-11">
    <rect class="cls-16" x="282.36" y="171.43" width="92.81" height="128.19"/>
  </g>
  <g class="cls-14">
    <rect class="cls-23" x="189.45" y="169.11" width="86.86" height="129.51"/>
  </g>
  <path class="cls-5" d="M548.21,562.98h4.64v-61.37h-5.78l-23.2,35.76-23.46-35.76h-5.6v61.37h4.73v-54.52l23.64,35.94h1.58l23.46-35.94v54.52Zm-71-61.37v38.08c0,26.26-37.64,26.35-37.64,0v-38.08h-4.64v38.08c0,32.13,46.92,32.04,46.92,0v-38.08h-4.64Zm-54.1,9.63c-6.04-9.02-13.66-10.42-22.41-10.42-10.07,0-23.55,4.03-23.29,16.98,0,11.29,11.47,13.57,22.67,15.76,10.07,1.93,20.22,3.94,20.14,13.13,0,10.86-11.99,12.96-19.52,12.96s-17.16-3.68-20.92-11.12l-4.2,2.1c4.73,9.37,15.58,13.31,25.12,13.31,10.24,0,24.16-3.33,24.25-17.16,0-13.22-12.26-15.32-24.07-17.6-10.33-1.93-18.73-3.76-18.73-11.56,0-9.8,11.38-12.43,18.56-12.43,6.92,.09,14.09,1.14,18.56,8.32l3.85-2.28Zm-73.97,30.55c26.61,0,26.61-40.18,0-40.18h-26.87v61.37h4.73v-21.18h22.15Zm0-35.81c20.4,0,20.4,31.52,0,31.52h-22.15v-31.52h22.15Zm-40.36,56.99v-61.37h-4.64v61.37h4.64Zm-23.57,0h11.56v-61.19h-13.22l-19.17,26.31-19.17-26.31h-13.31v61.19h11.56v-44.49l19.52,26.66h2.28l19.96-26.57v44.4Zm-62.33-11.38h-34.4v-13.83h33.18v-10.77h-33.18v-14.18h34.4v-11.21h-45.87v61.37h45.87v-11.38Zm-75.55-39.22c7.27,0,10.51,4.92,10.51,9.85s-3.15,9.85-10.51,9.85h-17.6v-19.7h17.6Zm25.13,49.81l-18.56-20.92c11.64-2.36,15.5-10.86,15.5-19.3,0-10.64-7.62-20.27-22.06-20.35-9.72,.09-19.43,0-29.15,0v61.37h11.56v-20.48h11.12l17.86,20.48h13.75v-.79Zm-94.29-51.21c14.44,0,20.22,11.56,20.05,21.89-.18,10.07-5.6,20.92-20.05,20.92s-19.87-10.77-20.13-20.84c-.26-10.33,5.69-21.97,20.13-21.97Zm0-10.51c-21.18,0-31.51,16.19-31.51,32.3s9.98,31.6,31.51,31.6,31.25-15.85,31.43-31.69c.17-16.02-10.33-32.22-31.43-32.22Zm-78.17,1.14v61.37H43.07v-10.68H11.56v-50.69H0Z"/>
</svg>